PathFileType	4	(X/Y/Z)	C:\Users\WrightLab\Desktop\Jo\P4V12.trc
DataRate	CameraRate	NumFrames	NumMarkers	Units	OrigDataRate	OrigDataStartFrame	OrigNumFrames
100.00	100.00	       21	19	mm	100.00	151	       602
Frame#	Time	Headset_Front			Headset_Back			Headset_Left			Headset_Right			Left_Shoulder			Right_Shoulder			Sternum			C7			Left Elbow			Right Elbow			Left Wrist			Right Wrist			Left ASIS			Right ASIS			S2			Left Knee			Right Knee			Left Ankle			Right Ankle			
		X1	Y1	Z1	X2	Y2	Z2	X3	Y3	Z3	X4	Y4	Z4	X5	Y5	Z5	X6	Y6	Z6	X7	Y7	Z7	X8	Y8	Z8	X9	Y9	Z9	X10	Y10	Z10	X11	Y11	Z11	X12	Y12	Z12	X13	Y13	Z13	X14	Y14	Z14	X15	Y15	Z15	X16	Y16	Z16	X17	Y17	Z17	X18	Y18	Z18	X19	Y19	Z19	

151	1.500	275.93710	1589.44629	1322.98315				110.86932	1706.41821	1256.77258				113.83115	1543.69482	1303.97009	417.94275	1540.19080	1272.75159	242.03351	1476.66431	1181.92371				-110.26921	1246.23901	1353.91150	525.82263	1024.75903	1019.91339	-253.78093	1094.52271	1127.71545	560.78546	1188.49194	1255.16296	86.66653	1030.81763	1221.07727	416.98215	1064.42810	1175.16138				131.33788	558.17047	1348.08704	436.22775	590.11487	1101.80396	211.44632	132.85953	1627.17798	418.03104	85.55533	1072.70630	
152	1.510	276.75217	1588.80542	1315.50903				111.12952	1706.26575	1249.12695				115.01115	1542.77539	1296.84619	418.18213	1539.66382	1263.86035	241.81792	1476.08447	1173.28259				-107.97202	1244.70313	1347.02307	525.37085	1025.04260	1009.44098	-252.72406	1094.57910	1120.32617	560.82892	1187.35400	1245.47034	87.22107	1030.55273	1211.81396	417.15945	1064.87354	1163.97864	259.70752	1070.28467	1372.94128	129.65176	557.73584	1338.62231	434.14914	589.43536	1093.98596	210.52966	136.23619	1623.82166	417.84225	85.63549	1069.63086	
153	1.520	277.48212	1588.23022	1307.56006				111.19557	1705.76880	1241.82288				115.04234	1542.72034	1289.57019	419.01749	1539.51575	1255.70618	241.85298	1476.67261	1164.51880				-106.40766	1243.68945	1340.18420	524.59277	1025.65100	998.69501	-253.47823	1093.77246	1114.17310	562.90137	1187.92297	1234.84180	87.94701	1030.43542	1203.65417	417.31021	1065.42334	1152.82996				128.59830	557.49603	1327.55359	431.51837	589.26489	1085.77722	209.71883	139.92242	1619.81860	418.56958	86.58265	1067.91882	
154	1.530	278.54791	1587.74548	1299.97363				110.48874	1706.18396	1234.09302				116.77203	1542.09265	1282.11194	419.62866	1539.41809	1247.16492	242.47459	1477.07593	1156.37915				-105.19889	1242.84302	1333.27478	523.23737	1027.37769	988.08899	-253.34662	1093.74597	1107.12720	561.77441	1187.58057	1224.10425	88.59355	1030.74744	1194.23657	417.30563	1065.04199	1141.92627	262.85767	1070.98401	1353.70947	126.90103	556.61322	1315.74500	428.28491	589.54163	1077.91736	209.53661	146.15022	1617.17505	418.30804	86.44632	1066.41455	
155	1.540	279.10229	1587.62488	1292.43201				111.57993	1705.59351	1226.54846				116.82365	1542.25391	1274.53223	420.34702	1539.94861	1238.19617	242.60730	1477.66113	1147.79028				-103.48953	1242.44385	1326.33533	522.86267	1028.27148	977.05414	-253.17401	1093.93689	1100.86084	563.75079	1188.79468	1213.67627	89.14922	1032.17566	1183.05566	415.89673	1067.60852	1127.69202	263.84326	1069.58020	1342.68701	125.28899	556.61896	1303.05298	427.41443	590.82861	1066.77100	207.75928	150.14415	1611.85461	418.22635	85.94031	1065.34937	
156	1.550	279.71060	1587.32251	1284.39404				111.45021	1706.13879	1218.67505				117.09134	1542.79016	1266.98462	420.03912	1540.33484	1229.60205	243.17578	1479.09387	1139.92236				-101.05402	1241.55347	1319.38904	521.76404	1030.54980	965.89191	-252.02441	1093.42700	1094.66931	563.61908	1189.29382	1203.35571	89.81100	1031.97217	1174.46240	418.42502	1067.07190	1121.36328				123.68533	555.55762	1289.46863	428.76489	592.34015	1055.67346	207.15562	156.01218	1605.75464	418.44995	85.73846	1064.01990	
157	1.560	279.83945	1587.53967	1276.60217				110.71427	1706.48987	1211.05383				117.76732	1542.59155	1259.25684	420.90942	1541.07324	1221.10107	242.97728	1479.77856	1130.85620				-98.93720	1240.84924	1312.22314	521.58850	1033.03406	954.32538	-250.98366	1093.14673	1088.10596	564.84985	1191.32898	1193.36853	90.30173	1032.57129	1166.07471	418.65698	1067.94495	1111.40015	265.25116	1070.94385	1325.79150	121.93131	554.26703	1275.22302	431.38074	593.42584	1043.99792	205.92580	162.32997	1599.85291	419.00751	86.44449	1063.39783	
158	1.570	280.33423	1587.47156	1268.75305				110.48500	1706.79346	1203.21997				118.13808	1543.11646	1251.38855	420.85361	1541.92810	1212.51392	242.73723	1480.56677	1121.97388				-97.52379	1240.76672	1305.29285	520.23145	1035.55884	942.78986	-250.04066	1093.03198	1081.64856	565.17822	1192.72803	1181.70166	91.68099	1032.44922	1157.29968	419.13046	1068.86902	1100.69141				121.03276	552.19745	1259.29138	434.67297	593.05927	1033.64526	205.54761	170.56203	1594.16980	419.08975	86.76511	1062.24121	
159	1.580	280.47702	1587.28687	1260.82520				110.40949	1707.40112	1195.32434				118.53650	1543.47034	1243.61682	421.10880	1542.38818	1203.34131	243.53976	1481.70581	1114.08667				-95.79733	1240.46228	1298.38489	519.91614	1039.49207	930.81006	-248.89961	1092.56433	1074.94629	565.26617	1193.72900	1171.17322	92.07803	1032.34863	1149.28601	420.29919	1068.48853	1091.51892	266.96915	1069.86670	1305.32654	120.13191	550.18726	1242.82935	438.20798	592.76019	1022.69232	205.65862	179.22697	1587.08386	418.25259	86.37758	1061.33728	
160	1.590	280.42639	1587.59863	1252.97058				111.19051	1707.10608	1187.53430				119.06691	1543.61169	1235.83533	420.76587	1543.49268	1194.34094	242.26186	1482.56287	1105.68481				-93.41467	1239.04810	1292.91260	518.80243	1043.78601	918.74121	-247.28442	1092.12354	1068.70178	565.88263	1195.59216	1160.51392	92.94968	1032.30103	1141.26147	421.15250	1068.36804	1082.23438	267.95840	1071.21631	1298.90039	118.48124	548.07477	1225.63269	440.44495	592.49213	1013.14740	206.89607	190.22501	1580.70691	418.02200	87.07293	1060.91516	
161	1.600	281.25775	1587.38171	1245.00476				110.54317	1707.74719	1179.69678				118.85902	1541.89722	1225.28235	420.57291	1544.22791	1185.81262	242.76398	1482.84521	1098.89063				-92.26572	1239.05603	1285.97559	518.00861	1048.90857	905.53296	-246.14413	1091.99683	1061.64734	566.43970	1196.73523	1149.74402	93.44918	1032.42407	1133.67041	421.83759	1068.75146	1071.58362	268.66016	1069.24768	1286.94202	116.23946	546.42126	1207.93579	440.82724	592.68353	1005.93256	208.62642	202.09286	1570.65540	417.27481	87.45823	1060.93042	
162	1.610	281.12851	1587.79224	1236.96313				109.68034	1708.19568	1171.90771				118.51273	1544.81909	1220.51428	420.72086	1545.46655	1176.47583	242.30341	1484.26355	1089.33105				-91.26808	1238.57849	1279.48047	517.23138	1054.49634	892.90796	-245.16168	1091.60889	1054.78394	567.70007	1198.27197	1139.13196	94.19585	1032.46521	1125.89124	421.84854	1069.21826	1061.54431	269.72327	1070.49194	1281.81152	113.19850	545.22382	1190.45557	439.26041	591.81464	1000.44427	210.27377	213.32301	1559.50037	416.81039	87.68870	1060.43921	
163	1.620	281.55841	1588.26855	1229.24829				109.18978	1708.45300	1164.04285				118.82910	1544.87488	1213.14600	420.57953	1545.43982	1167.43518	241.26160	1484.68982	1081.06116				-89.54572	1237.98975	1272.39807	515.53711	1060.25964	879.72571	-243.85040	1091.47974	1048.39624	568.01007	1200.15479	1127.74341	94.42596	1033.01599	1118.85059	422.49158	1069.53479	1054.01624				110.05244	544.34485	1172.25256	436.35571	590.28101	994.33887	213.41698	225.96985	1546.90747	416.77203	88.06868	1060.14075	
164	1.630	281.62866	1588.80505	1221.05884				108.57224	1709.12720	1156.26013				119.10906	1545.27295	1205.66455	420.27316	1546.91638	1158.44592	240.80464	1484.54578	1074.21436				-88.48830	1237.54065	1265.54443	514.42511	1066.43359	866.81812	-242.66556	1092.11279	1041.43201	569.18890	1201.64417	1116.54968	93.93404	1033.97742	1112.24768	422.76407	1069.80371	1044.89868	270.56860	1069.20276	1265.37354	106.20713	544.28912	1154.24194	433.90314	589.38904	990.60974	216.27885	238.89644	1533.75183	416.54269	88.80582	1060.38806	
165	1.640	281.23428	1589.38696	1213.30981				107.55930	1709.53223	1148.36060				118.58420	1545.98315	1198.60168	419.78479	1548.05469	1149.00684	240.18874	1486.36816	1065.75757				-87.26397	1237.38708	1259.49121	513.38513	1073.03491	853.18542	-240.86102	1091.35828	1035.49377	569.12292	1204.06665	1104.79871	94.10241	1035.07178	1105.31775	421.81641	1070.54565	1036.70862	271.61893	1070.97278	1259.14331	102.45341	545.14923	1136.48096	431.33884	588.94946	986.09216	219.65366	251.41734	1519.19189	416.25974	88.62053	1060.03162	
166	1.650	281.35031	1590.08496	1205.88037				107.01376	1710.00415	1140.55786				118.54117	1546.52930	1191.64917	419.40320	1549.12585	1140.53394	238.68399	1487.10339	1057.54358				-86.06057	1236.91370	1252.94580	512.06250	1079.83557	839.26855	-239.45204	1090.85120	1029.03113	569.75189	1206.30078	1092.25830	93.34568	1036.64026	1099.13916	421.13165	1071.40405	1026.83093	272.10986	1069.64709	1248.92554	98.56506	546.89081	1118.64783	430.32916	588.91492	981.02588	224.36690	263.53778	1504.14673	416.02344	88.79198	1060.03760	
167	1.660	280.96756	1590.95496	1198.21936				105.81238	1711.08179	1132.60242				117.90435	1547.19287	1184.90125	418.95566	1550.22742	1131.45691	238.13620	1486.99707	1051.91382				-85.28465	1236.87646	1246.37305	509.37231	1086.31689	825.41235	-237.48735	1090.61963	1023.47467	570.01862	1208.80920	1080.36157	92.87354	1038.25793	1093.09497	418.35062	1072.30811	1017.11993	272.82285	1072.74475	1244.27917	94.74750	549.34668	1101.92749	430.01660	589.00696	975.92993	228.51924	275.22183	1488.05334	415.58563	88.76483	1059.74121	
168	1.670	280.62982	1591.64221	1190.67114				104.54696	1711.54785	1124.85303				117.54227	1548.28552	1178.28796	418.40292	1551.82312	1123.56262	236.66769	1487.46545	1044.11389				-83.78746	1236.88110	1239.98376	507.73837	1093.01318	810.58441	-236.10379	1089.80566	1016.98413	570.52521	1211.30701	1067.08948	92.09004	1039.65894	1087.04980	416.76907	1073.71997	1008.03748	273.91699	1071.34570	1233.21375	90.74554	551.82324	1085.47778	429.93921	589.00153	970.36926	233.15222	285.94717	1471.55273	415.75757	88.94199	1060.02869	
169	1.680	279.95676	1592.78796	1183.64880				104.31876	1712.15662	1116.99585				116.86105	1549.13281	1171.89758	417.50491	1552.85840	1115.84680	235.10748	1489.24316	1036.59607				-83.14471	1236.65259	1234.06750	505.73553	1100.91785	796.70892	-234.48633	1089.40088	1010.48938	570.62262	1213.92419	1055.12317	90.99245	1041.64258	1081.51221	415.44794	1073.74377	999.18427	274.22055	1073.91809	1229.29651	86.82722	554.51825	1069.24292	429.99457	588.04999	964.86194	239.16956	293.09576	1455.55432	415.55249	88.97838	1059.58057	
170	1.690	279.82813	1593.62354	1175.93835				103.14375	1713.33093	1109.04395				116.81822	1549.93347	1165.71558	416.08655	1554.16833	1106.63013	234.27400	1489.82043	1030.20410				-82.03439	1236.73499	1228.24731	503.80295	1109.17529	782.25238	-231.17398	1087.32922	1004.99146	570.55475	1216.95276	1042.04565	90.42773	1043.36853	1075.79688	416.37274	1071.82300	996.37811	273.72549	1073.22461	1220.61548	82.46611	558.05078	1054.19812	430.12955	587.79901	960.39142	244.33260	300.97409	1439.15381	415.64621	89.11340	1059.38049	
171	1.700	279.56012	1594.83813	1169.13354				101.56188	1714.06311	1101.37549				115.89771	1551.12146	1159.84534	414.93048	1555.56738	1098.41772	232.72227	1490.88647	1023.13324				-81.18967	1236.49731	1222.56714	501.25061	1117.46484	767.66138	-229.19189	1086.21436	1000.04016	570.48663	1220.04578	1029.75793	89.41775	1045.21985	1069.97754	413.77328	1073.77295	987.41937	273.82712	1076.42883	1216.57813	77.52827	561.59381	1039.70337	429.66644	587.33771	956.51404	248.89731	305.63748	1422.58911	415.64621	89.11340	1059.38049	
